<?xml version="1.0" encoding="UTF-8" standalone="no"?>
<!DOCTYPE svg PUBLIC "-//W3C//DTD SVG 1.1//EN" "http://www.w3.org/Graphics/SVG/1.1/DTD/svg11.dtd">
<svg width="100%" height="100%" viewBox="0 0 2138 1920" version="1.1" xmlns="http://www.w3.org/2000/svg" xmlns:xlink="http://www.w3.org/1999/xlink" xml:space="preserve" xmlns:serif="http://www.serif.com/" style="fill-rule:evenodd;clip-rule:evenodd;stroke-linejoin:round;stroke-miterlimit:2;">
    <g transform="matrix(1,0,0,1,-283921,-14713.7)">
        <g id="Artboard24" transform="matrix(0.991315,0,0,0.827847,14724.7,-44527.2)">
            <rect x="271555" y="71560.1" width="2156.53" height="2319.27" style="fill:none;"/>
            <g transform="matrix(1.05412,0.728763,-0.608595,1.26226,29684.3,-217932)">
                <path d="M272511,72210.8C272544,72191.8 272584,72191.8 272617,72210.8C272735,72278.6 273016,72441 273133,72508.8C273166,72527.8 273186,72562.8 273186,72600.7C273186,72736.4 273186,73061.1 273186,73196.8C273186,73234.7 273166,73269.7 273133,73288.7C273016,73356.6 272735,73518.9 272617,73586.8C272584,73605.7 272544,73605.7 272511,73586.8C272393,73518.9 272112,73356.6 271995,73288.7C271962,73269.7 271942,73234.7 271942,73196.8C271942,73061.1 271942,72736.4 271942,72600.7C271942,72562.8 271962,72527.8 271995,72508.8C272112,72441 272393,72278.6 272511,72210.8Z" style="fill:url(#_Linear1);"/>
            </g>
            <g transform="matrix(0.988586,0,0,1.18379,-12773.8,43929.2)">
                <path d="M289108,23360.6C289200,23360.6 289284,23409.3 289330,23488.6C289436,23672.3 289630,24008.8 289737,24192.5C289782,24271.7 289782,24369.3 289737,24448.5C289630,24632.3 289436,24968.8 289330,25152.5C289284,25231.7 289200,25280.5 289108,25280.5C288896,25280.5 288508,25280.5 288296,25280.5C288204,25280.5 288120,25231.7 288074,25152.5C287968,24968.8 287773,24632.3 287667,24448.5C287622,24369.3 287622,24271.7 287667,24192.5C287773,24008.8 287968,23672.3 288074,23488.6C288120,23409.3 288204,23360.6 288296,23360.6C288508,23360.6 288896,23360.6 289108,23360.6ZM289226,24875.3C289234,24880.3 289243,24882 289252,24879.9C289261,24877.9 289268,24872.3 289273,24864.5C289336,24755 289550,24384.6 289550,24384.6C289573,24344.9 289573,24296.2 289550,24256.6C289466,24112.2 289265,23762.7 289181,23618.3C289158,23578.7 289116,23554.3 289070,23554.3C288904,23554.3 288500,23554.3 288333,23554.3C288288,23554.3 288245,23578.7 288223,23618.3C288139,23762.7 287937,24112.2 287854,24256.6C287831,24296.2 287831,24344.9 287854,24384.6C287854,24384.6 288068,24755 288131,24864.4C288136,24872.1 288143,24877.6 288151,24879.8C288160,24881.9 288169,24880.5 288177,24875.9C288183,24871.6 288190,24867.2 288195,24863.4C288206,24857.6 288212,24846.8 288212,24835.1C288212,24761.8 288212,24479.2 288212,24383.3C288212,24374.9 288215,24366.7 288221,24360.7C288227,24354.7 288235,24351.3 288244,24351.3C288273,24351.3 288314,24351.3 288343,24351.3C288352,24351.3 288360,24354.7 288366,24360.7C288372,24366.7 288375,24374.9 288375,24383.3C288375,24478.1 288375,24755.1 288375,24825.3C288375,24834.3 288383,24841.6 288392,24841.6C288411,24841.6 288442,24841.6 288461,24841.6C288470,24841.6 288477,24834.3 288477,24825.3C288477,24755.1 288477,24478.1 288477,24383.3C288477,24374.9 288481,24366.7 288487,24360.7C288493,24354.7 288501,24351.3 288509,24351.3C288538,24351.3 288580,24351.3 288609,24351.3C288617,24351.3 288625,24354.7 288631,24360.7C288637,24366.7 288641,24374.9 288641,24383.3C288641,24478.1 288641,24755.1 288641,24825.3C288641,24834.3 288648,24841.6 288657,24841.6C288681,24841.6 288724,24841.6 288747,24841.6C288756,24841.6 288763,24834.3 288763,24825.3C288763,24755.1 288763,24478.1 288763,24383.3C288763,24374.9 288767,24366.7 288773,24360.7C288779,24354.7 288787,24351.3 288795,24351.3C288824,24351.3 288866,24351.3 288895,24351.3C288903,24351.3 288911,24354.7 288917,24360.7C288923,24366.7 288927,24374.9 288927,24383.3C288927,24478.1 288927,24755.1 288927,24825.3C288927,24834.3 288934,24841.6 288943,24841.6L289013,24841.6C289022,24841.6 289029,24834.3 289029,24825.3C289029,24755.1 289029,24478.1 289029,24383.3C289029,24374.9 289032,24366.7 289038,24360.7C289044,24354.7 289052,24351.3 289061,24351.3C289090,24351.3 289132,24351.3 289160,24351.3C289169,24351.3 289177,24354.7 289183,24360.7C289189,24366.7 289192,24374.9 289192,24383.4C289192,24479.2 289192,24761.8 289192,24835.1C289192,24846 289198,24856.2 289207,24862.3C289213,24866.2 289220,24870.8 289226,24875.3ZM288670,23786L288098,24031.1C288062,24046.4 288042,24084.7 288050,24122.5C288057,24154.3 288081,24178.9 288112,24185.9C288123,24188.3 288130,24197.6 288130,24208.3C288130,24208.3 288130,24208.3 288130,24208.3C288130,24242.3 288157,24269.6 288191,24269.6L289213,24269.6C289247,24269.6 289274,24242.3 289274,24208.3C289274,24208.3 289274,24208.3 289274,24208.3C289274,24197.6 289282,24188.2 289292,24185.9C289323,24179 289348,24154.5 289354,24122.5C289362,24084.5 289342,24046.2 289306,24031.1L288734,23786C288714,23777.3 288690,23777.3 288670,23786ZM288702,23942.8C288747,23942.8 288784,23979.6 288784,24024.5C288784,24069.3 288747,24106.2 288702,24106.2C288657,24106.2 288620,24069.3 288620,24024.5C288620,23979.6 288657,23942.8 288702,23942.8Z" style="fill:rgb(37,32,24);"/>
            </g>
        </g>
    </g>
    <defs>
        <linearGradient id="_Linear1" x1="0" y1="0" x2="1" y2="0" gradientUnits="userSpaceOnUse" gradientTransform="matrix(-622.339,-1077.92,1077.91,-622.334,272875,73437.7)"><stop offset="0" style="stop-color:rgb(237,143,3);stop-opacity:1"/><stop offset="1" style="stop-color:rgb(251,189,3);stop-opacity:1"/></linearGradient>
    </defs>
</svg>
